<svg xmlns="http://www.w3.org/2000/svg" viewBox="0 0 300 300.041"><g fill="#323232"><path d="M299.999 150.047c.298 82.834-67.488 150.25-150.262 149.993C66.887 299.783.152 232.926 0 150-.151 67.25 67.535-.378 150.467.002c82.787.378 149.56 67.149 149.532 150.045zm-62.152-60.081c-.622-1.281-.996-2.57-1.763-3.551-6.724-8.608-14.748-15.96-22.796-23.275-2.007-1.824-4.383-1.697-6.555-.059-6.225 4.695-12.462 9.373-18.658 14.107-.843.644-1.47.667-2.428.245a232.052 232.052 0 0 0-10.08-4.161c-.862-.333-1.228-.705-1.366-1.638-1.174-7.934-2.419-15.857-3.633-23.785-.503-3.284-2.161-4.773-5.515-4.78-10.022-.02-20.044-.019-30.067 0-3.333.006-4.919 1.088-5.497 4.392-1.37 7.839-2.547 15.713-3.712 23.586-.189 1.28-.601 1.938-1.87 2.41a135.097 135.097 0 0 0-9.581 4.012c-1.151.532-1.875.45-2.86-.328-5.404-4.27-10.859-8.475-16.319-12.672-4.524-3.478-5.638-3.573-10.13.056-7.909 6.388-14.927 13.699-21.349 21.565-2.583 3.163-2.357 4.786.192 8.012 4.515 5.716 8.942 11.502 13.435 17.237.631.805.724 1.447.274 2.436-1.572 3.463-2.961 7.008-4.514 10.48-.237.529-.93 1.109-1.488 1.2-7.804 1.266-15.621 2.448-23.433 3.658-3.601.558-5.068 2.295-5.07 6.012-.006 9.51-.003 19.019-.002 28.529 0 4.828 1.289 6.223 6.046 6.886 7.268 1.012 14.519 2.136 21.786 3.155 1.209.17 1.777.652 2.225 1.838 1.404 3.715 2.976 7.368 4.58 11.003.387.877.49 1.49-.158 2.271-1.125 1.357-2.134 2.81-3.209 4.209-3.504 4.558-7.057 9.078-10.508 13.675-1.811 2.413-1.701 4.668.095 7.053.479.636.926 1.311 1.485 1.871 6.874 6.884 13.735 13.781 20.671 20.603 2.675 2.631 4.883 2.643 7.863.376 6.024-4.584 12.036-9.185 18.101-13.715.506-.378 1.485-.558 2.058-.34 3.447 1.314 6.83 2.796 10.258 4.162.862.344 1.346.699 1.499 1.752 1.146 7.88 2.391 15.746 3.604 23.617.542 3.517 2.153 4.911 5.732 4.913 9.908.006 19.817.007 29.725 0 3.46-.002 5.053-1.051 5.641-4.423 1.367-7.84 2.548-15.713 3.704-23.588.192-1.306.663-1.937 1.898-2.407a164.757 164.757 0 0 0 9.733-4.084c1.058-.483 1.706-.34 2.573.349 5.613 4.463 11.265 8.877 16.92 13.288 3.487 2.72 5.033 2.875 8.529.207 8.418-6.421 15.603-14.121 22.339-22.237 2.741-3.303 2.584-4.879-.081-8.288-4.486-5.74-8.924-11.517-13.42-17.249-.642-.819-.735-1.457-.282-2.438 1.474-3.197 2.884-6.43 4.162-9.71.489-1.256 1.121-1.861 2.478-2.056 7.713-1.104 15.413-2.301 23.12-3.452 2.939-.439 4.726-2.33 4.735-5.282.031-10.25.032-20.5-.003-30.75-.009-2.778-1.621-4.616-4.348-5.047a2480.974 2480.974 0 0 0-23.781-3.654c-.982-.145-1.447-.492-1.814-1.421-1.483-3.75-3-7.49-4.672-11.157-.491-1.077-.344-1.708.314-2.555 4.465-5.756 8.92-11.522 13.3-17.343.787-1.051 1.216-2.372 1.887-3.72z"/><path d="M114.401 149.876c.083-19.931 15.864-35.566 35.802-35.471 19.92.096 35.557 15.913 35.434 35.842-.123 19.914-15.953 35.528-35.891 35.402-19.813-.124-35.427-15.927-35.345-35.773z"/></g></svg>